<?xml version="1.0" standalone="no"?>
<!DOCTYPE svg PUBLIC "-//W3C//DTD SVG 1.1//EN" "http://www.w3.org/Graphics/SVG/1.1/DTD/svg11.dtd" >
<svg xmlns="http://www.w3.org/2000/svg">
<metadata>Generated by IcoMoon</metadata>
<defs>
<font id="rgp-icons" horiz-adv-x="1024">
<font-face units-per-em="1024" ascent="960" descent="-64" />
<missing-glyph horiz-adv-x="1024" />
<glyph unicode="&#x20;" d="" horiz-adv-x="512" />
<glyph unicode="&#x21;" d="M512-64c-282.752 0-512 229.248-512 512s229.248 512 512 512 512-229.248 512-512c0-282.752-229.248-512-512-512zM384 703.616v-511.232l384 255.616-384 255.616z" />
<glyph unicode="&#x2a;" d="M648.064 448.128l357.568-357.696c24.768-24.768 24.512-65.088-0.576-90.112l-45.376-45.376c-25.088-25.088-65.408-25.344-90.112-0.576l-357.568 357.632-357.504-357.632c-24.768-24.768-65.088-24.512-90.176 0.576l-45.312 45.376c-25.088 25.088-25.344 65.344-0.576 90.112l357.504 357.696-357.248 357.312c-24.768 24.768-24.512 65.152 0.512 90.176l45.312 45.376c25.088 25.088 65.472 25.344 90.176 0.64l357.312-357.44 357.312 357.44c24.704 24.704 65.088 24.448 90.112-0.64l45.376-45.376c25.088-25.088 25.344-65.408 0.576-90.176l-357.312-357.312z" />
<glyph unicode="&#x2b;" d="M511.586 892.387c-244.374 0-442.478-198.104-442.478-442.478s198.104-442.479 442.478-442.479 442.479 198.104 442.479 442.479-198.105 442.478-442.479 442.478zM748 396.8h-184.8v-184.8h-102.4v184.8h-184.8v102.4h184.8v184.8h102.4v-184.8h184.8v-102.4z" />
<glyph unicode="&#x2d;" d="M511.586 892.387c-244.374 0-442.478-198.104-442.478-442.478s198.104-442.478 442.478-442.478c244.374 0 442.478 198.104 442.478 442.478 0 244.374-198.104 442.478-442.478 442.478zM748 396.8h-472v102.4h472v-102.4z" />
<glyph unicode="&#x31;" d="M512 864c-111.118 0-215.584-43.272-294.155-121.845-78.573-78.571-121.845-183.037-121.845-294.155 0-111.118 43.272-215.584 121.845-294.155 78.571-78.573 183.037-121.845 294.155-121.845 111.118 0 215.584 43.272 294.155 121.845 78.573 78.571 121.845 183.037 121.845 294.155 0 111.118-43.272 215.584-121.845 294.155-78.571 78.573-183.037 121.845-294.155 121.845zM512 960v0c282.77 0 512-229.23 512-512s-229.23-512-512-512c-282.77 0-512 229.23-512 512 0 282.77 229.23 512 512 512zM448 256h128v-128h-128zM448 768h128v-384h-128z" />
<glyph unicode="&#x33;" d="M1024 601.845c0 162.458-131.699 294.155-294.155 294.155-86.363 0-164.030-37.218-217.845-96.49-53.814 59.272-131.482 96.49-217.845 96.49-162.458 0-294.155-131.698-294.155-294.155 0-86.363 37.218-164.030 96.49-217.845h-0.49l320-320c32-32 64-64 96-64s64 32 96 64l320 320h-0.49c59.272 53.814 96.49 131.482 96.49 217.845zM841.469 478.768l-323.979-324.258c-1.678-1.678-3.533-3.533-5.49-5.48-1.96 1.95-3.814 3.802-5.49 5.48l-323.978 324.256c-35.166 31.928-54.533 75.637-54.533 123.078 0 91.618 74.538 166.155 166.155 166.155 47.44 0 91.15-19.366 123.075-54.531l94.77-104.381 94.768 104.378c31.928 35.168 75.635 54.534 123.077 54.534 91.618 0 166.155-74.538 166.155-166.155 0-47.442-19.368-91.15-54.531-123.077z" />
<glyph unicode="&#x42;" d="M64 960h384v-64h-384zM576 960h384v-64h-384zM952 640h-56v256h-256v-256h-256v256h-256v-256h-56c-39.6 0-72-32.4-72-72v-560c0-39.6 32.4-72 72-72h304c39.6 0 72 32.4 72 72v376h128v-376c0-39.6 32.4-72 72-72h304c39.6 0 72 32.4 72 72v560c0 39.6-32.4 72-72 72zM348 0h-248c-19.8 0-36 14.4-36 32s16.2 32 36 32h248c19.8 0 36-14.4 36-32s-16.2-32-36-32zM544 448h-64c-17.6 0-32 14.4-32 32s14.4 32 32 32h64c17.6 0 32-14.4 32-32s-14.4-32-32-32zM924 0h-248c-19.8 0-36 14.4-36 32s16.2 32 36 32h248c19.8 0 36-14.4 36-32s-16.2-32-36-32z" />
<glyph unicode="&#x43;" d="M161.519 33.52l-161.519 162.48 512 512 512-512-162.223-161.777-349.777 349.777-350.481-350.48z" />
<glyph unicode="&#x44;" d="M132.198 673.229c-13.875 13.722-36.301 13.722-50.125 0-13.824-13.67-13.824-35.891 0-49.613l404.89-400.896c13.875-13.722 36.25-13.722 50.125 0l404.89 400.896c13.824 13.722 13.875 35.891 0 49.613s-36.352 13.722-50.125 0.051l-379.853-365.619-379.802 365.568z" />
<glyph unicode="&#x48;" d="M1024 601.845c0-86.363-37.218-164.030-96.49-217.845h0.49l-320-320c-32-32-64-64-96-64s-64 32-96 64l-320 320h0.49c-59.272 53.814-96.49 131.482-96.49 217.845 0 162.458 131.698 294.155 294.155 294.155 86.363 0 164.030-37.218 217.845-96.49 53.814 59.272 131.482 96.49 217.845 96.49 162.456 0 294.155-131.698 294.155-294.155z" />
<glyph unicode="&#x49;" d="M512 960c-282.784 0-512-229.248-512-512s229.216-512 512-512 512 229.248 512 512-229.216 512-512 512zM524.246 744.984c32.704 0 59.246-26.542 59.246-59.246s-26.542-59.246-59.246-59.246-59.246 26.542-59.246 59.246 26.542 59.246 59.246 59.246zM412 192l-0.5 64h100.5v256h-52.087l0.087 64h116v-320h99.5l0.5-64h-264z" />
<glyph unicode="&#x4c;" d="M878-64h-732c-17.664 0-32 14.304-32 32v462c0 17.696 14.336 32 32 32h56v178c0 176.736 133.264 310 310 310s310-133.264 310-310v-178h56c17.696 0 32-14.304 32-32v-462c0-17.696-14.304-32-32-32zM714 656c0 97.216-95.984 186-202 186s-202-88.784-202-186v-194h404v194z" />
<glyph unicode="&#x4f;" d="M862.481 708l161.519-162.48-512-512-512 512 162.223 161.777 349.777-349.777 350.481 350.48z" />
<glyph unicode="&#x50;" d="M748.787 664.5v0h-725.494v-360.643h124.886v-294.717h659.217v294.717h124.885v360.643h-183.494zM748.787 63.142h-542v311.713h542v-311.713zM748.787 829.5v-164.999h58.609v222.359h-659.217v-222.359h58.608v164.999zM230.787 311.499h494v-34h-494v34zM230.787 160.499h494v-34h-494v34zM230.787 236.499h494v-34h-494v34z" horiz-adv-x="950" />
<glyph unicode="&#x52;" d="M307.251 683.52l-0.051-471.040 409.6 235.52z" />
<glyph unicode="&#x55;" d="M891.802 222.771c13.875-13.722 36.301-13.722 50.125 0 13.875 13.722 13.875 35.891 0 49.613l-404.89 400.896c-13.824 13.722-36.25 13.722-50.074 0l-404.89-400.896c-13.824-13.722-13.875-35.891 0-49.613s36.25-13.722 50.125 0l379.802 365.619 379.802-365.619z" />
<glyph unicode="&#x58;" d="M512 960c-282.752 0-512-229.248-512-512s229.248-512 512-512 512 229.248 512 512-229.248 512-512 512zM765.248 285.248l-90.496-90.496-162.752 162.752-162.752-162.752-90.496 90.496 162.752 162.752-162.752 162.752 90.496 90.496 162.752-162.752 162.752 162.752 90.496-90.496-162.752-162.752 162.752-162.752z" />
<glyph unicode="&#x62;" d="M803.99 538.694c0 165.232-180.011 299.176-401.997 299.176-222.014 0.002-401.994-133.944-401.994-299.176 0-99.301 65.006-187.274 165.072-241.69-0.288-0.864-79.72-145.398-79.72-145.398s242.554 92.518 243.226 92.901c23.802-3.296 48.338-4.958 73.418-4.958 221.982 0.002 401.995 133.946 401.995 299.146zM1100 445.218c0 165.2-169.454 297.962-352.89 299.144 262.963-261.941-46.738-541.026-299.144-541.026 0 0 28.056-57.264 250.040-57.264 25.048 0 49.618 1.728 73.418 4.99 0.672-0.448 243.258-92.901 243.258-92.901s-79.464 144.502-79.72 145.366c100.032 54.416 165.038 142.422 165.038 241.69z" horiz-adv-x="1099" />
<glyph unicode="&#x63;" d="M192 576l-192-192 384-384 640 640-192 192-448-448z" />
<glyph unicode="&#x64;" d="M293.184 228.57l-292.572 329.144h584.53z" horiz-adv-x="584" />
<glyph unicode="&#x65;" d="M896-64h-768c-70.656 0-128 57.344-128 128v768c0 70.656 57.344 128 128 128h576l-128-128h-384c-35.328 0-64-28.672-64-64v-640c0-35.392 28.672-64 64-64h640c35.392 0 64 28.608 64 64v384l128 128v-576c0-70.656-57.344-128-128-128zM896 832l-64 64v64c0 0 192 1.984 192-192h-64l-64 64zM320 256v192h64l128-128v-64h-192zM896 704l-320-320-128 128 320 320 128-128z" />
<glyph unicode="&#x67;" d="M384 789.333l-128-128 192-192-192-192 128-128 320 320z" />
<glyph unicode="&#x68;" d="M896 633.557v283.776h-213.333v-126.421l-171.435 126.421-511.232-384h128v-554.667h768v554.667l128-0.085-128 100.309zM512 64h-170.667v341.333h170.667v-341.333zM810.667 64h-256v384h-256v-384h-85.334v512l299.051 213.333 298.283-213.333v-512zM810.667 741.035l-42.667 28.459v62.506h42.667v-90.965zM768 362.667h-170.667v-170.667h170.667v170.667zM725.333 234.667h-85.333v85.333h85.333v-85.333zM469.333 234.667h-42.667v-42.667h42.667v42.667z" />
<glyph unicode="&#x69;" d="M292.57 557.714l292.572-329.144h-584.53z" horiz-adv-x="584" />
<glyph unicode="&#x6c;" d="M32.106 448.020l490.895-440.915v220.43h468.887v440.921h-468.887v220.436z" />
<glyph unicode="&#x6d;" d="M30 780.668v-686.668h964.002v686.668h-964.002zM887.777 164.895l-249.987 242.194-125.79-117.846-132.162 123.815-243.189-247.743-35.682 35.025 242.372 246.91-241.605 226.345 34.185 36.489 376.081-352.327 376.081 352.328 34.184-36.489-247.944-232.284 248.247-240.508-34.791-35.909z" />
<glyph unicode="&#x6e;" d="M950.147 868.503c-25.001 25.001-55.168 37.501-90.501 37.501v-186.504c-21.939 0-169.173 0-192.002 0v186.504h-320v-186.504c-23.95 0-164.214 0-192.002 0v186.504c-35.334 0-65.5-12.5-90.501-37.501s-37.501-55.168-37.501-90.501v-704c0-35.333 12.5-65.5 37.501-90.501s55.168-37.501 90.501-37.501h704.005c35.332 0 65.5 12.5 90.501 37.501s37.501 55.168 37.501 90.501v704c-0.001 35.334-12.501 65.501-37.502 90.501zM856.643 155.5h-698v70h698v-70zM856.643 326.5h-698v70h698v-70zM856.643 487.5h-698v70h698v-70zM217.5 960h66v-190.5h-66v190.5zM730.5 960h66v-190.5h-66v190.5z" />
<glyph unicode="&#x71;" d="M246.829 636.005c-82.432 0-139.299-68.762-139.299-153.6s64.538-71.905 146.97-71.905c149.248 0 42.095-338.655-156.97-338.655v-71.629c348.151 0 494.437 635.789 149.299 635.789v0zM97.5 716.5h346.148v-308.5h-346.148v308.5zM677.829 636.005c-82.433 0-139.3-68.762-139.3-153.6s64.539-71.905 146.971-71.905c149.248 0 42.095-338.655-156.971-338.655v-71.629c348.153 0 494.438 635.789 149.3 635.789v0zM528.5 716.5h346.148v-308.5h-346.148v308.5z" />
<glyph unicode="&#x72;" d="M991.888 447.978l-490.894 440.914v-220.429h-468.888v-440.921h468.888v-220.437z" />
<glyph unicode="&#x73;" d="M896-64h-768q-53 0-90.501 37.501t-37.501 90.501v768q0 53 37.501 90.501t90.501 37.501h768q53 0 90.501-37.501t37.501-90.501v-768q0-53-37.501-90.501t-90.501-37.501zM896 704q0 53-37.501 90.501t-90.501 37.501h-512q-53 0-90.501-37.501t-37.501-90.501v-512q0-53 37.501-90.501t90.501-37.501h512q53 0 90.501 37.501t37.501 90.501v512zM785 386l-60 60-188-188q-6-11-11-16-18-18-43.501-18t-43.501 18l-55 55-88-87q-18-18-43.501-18t-43.501 18-18 43.501 18 43.501l122 122q7 10 7 11 18 18 43.501 18t43.501-18l54-55 158 158-61 61v6q0 14 0.501 21t6 13 16.501 6h186q20 0 33.501-13.501t13.501-32.501v-185q0-11-6-16.501t-13-6-21-0.501h-7z" />
<glyph unicode="&#x78;" d="M877.714 448q0-119.429-58.858-220.286t-159.714-159.714-220.286-58.858-220.286 58.858-159.714 159.714-58.858 220.286 58.858 220.286 159.714 159.714 220.286 58.858 220.286-58.858 159.714-159.714 58.858-220.286z" horiz-adv-x="877" />
</font>
</defs>
</svg>
