<?xml version="1.0" encoding="utf-8"?>
<!-- Generator: Adobe Illustrator 19.2.1, SVG Export Plug-In . SVG Version: 6.00 Build 0)  -->
<svg version="1.1" id="Layer_1" xmlns="http://www.w3.org/2000/svg" xmlns:xlink="http://www.w3.org/1999/xlink" x="0px" y="0px"
	 viewBox="0 0 64 64" style="enable-background:new 0 0 64 64;" xml:space="preserve">
<style type="text/css">
	.st0{fill:#231F20;}
</style>
<g>
	<path class="st0" d="M32,0C14.3,0,0,14.3,0,32c0,17.7,14.3,32,32,32s32-14.3,32-32C64,14.3,49.7,0,32,0z M32,61C16,61,3,48,3,32
		C3,16,16,3,32,3s29,13,29,29C61,48,48,61,32,61z"/>
	<path class="st0" d="M31.5,32c0,0-5.4,7.9-5.4,7.9L41.9,32l-15.8-7.9C26.1,24.1,31.4,32,31.5,32z"/>
</g>
</svg>
